<?xml version="1.0" encoding="UTF-8" standalone="no"?>
<!-- Svg Vector Icons : http://www.onlinewebfonts.com/icon -->

<svg
   version="1.1"
   x="0px"
   y="0px"
   viewBox="0 0 1179.9901 1179.9901"
   enable-background="new 0 0 1000 1000"
   xml:space="preserve"
   id="svg10"
   sodipodi:docname="logo.svg"
   width="1179.9901"
   height="1179.9901"
   inkscape:version="1.2.2 (b0a8486541, 2022-12-01)"
   xmlns:inkscape="http://www.inkscape.org/namespaces/inkscape"
   xmlns:sodipodi="http://sodipodi.sourceforge.net/DTD/sodipodi-0.dtd"
   xmlns="http://www.w3.org/2000/svg"
   xmlns:svg="http://www.w3.org/2000/svg"><defs
   id="defs14"><rect
     x="-411.13739"
     y="701.70831"
     width="1221.3037"
     height="196.32574"
     id="rect962" /></defs><sodipodi:namedview
   id="namedview12"
   pagecolor="#505050"
   bordercolor="#eeeeee"
   borderopacity="1"
   inkscape:showpageshadow="0"
   inkscape:pageopacity="0"
   inkscape:pagecheckerboard="0"
   inkscape:deskcolor="#505050"
   showgrid="false"
   showguides="true"
   inkscape:zoom="0.852"
   inkscape:cx="814.55399"
   inkscape:cy="604.46009"
   inkscape:window-width="2560"
   inkscape:window-height="1440"
   inkscape:window-x="0"
   inkscape:window-y="0"
   inkscape:window-maximized="1"
   inkscape:current-layer="svg10"><sodipodi:guide
     position="579.59214,980.8768"
     orientation="1,0"
     id="guide966"
     inkscape:locked="false" /></sodipodi:namedview>
<metadata
   id="metadata2"> Svg Vector Icons : http://www.onlinewebfonts.com/icon </metadata>

<circle
   style="fill:#e2001a;fill-opacity:1;stroke:#000000;stroke-width:0"
   id="path349"
   cx="589.99506"
   cy="589.99506"
   r="589.99506" /><g
   id="g8"
   transform="matrix(0.76480164,0,0,0.76480164,207.59806,114.83663)"
   style="fill:#ffffff"><g
     transform="matrix(0.1,0,0,-0.1,0,586.4756)"
     id="g6"
     style="fill:#ffffff"><path
       d="m 1039,4068.4 c -32,-20 -257.7,-235.8 -499.5,-479.5 L 100,3147.4 V -311.1 -3769.6 l 65.9,-57.9 63.9,-57.9 h 911.1 c 785.2,0 917.1,4 969,32 115.9,59.9 117.9,71.9 117.9,1136.8 v 969 h 849.2 847.1 l 6,-1011 6,-1011 65.9,-57.9 63.9,-57.9 H 4975 c 539.4,0 927.1,8 957,20 28,10 69.9,48 91.9,83.9 38,63.9 40,101.9 40,1050.9 v 983 h 849.1 847.1 l 6,-1011 6,-1011 65.9,-57.9 63.9,-57.9 H 8811 c 539.4,0 927.1,8 957,20 28,10 69.9,48 91.9,83.9 40,65.9 40,103.9 40,3456.5 0,2313.6 -6,3408.5 -20,3446.5 -24,59.9 -775.2,829.2 -907.1,927.1 -85.9,63.9 -165.8,73.9 -247.7,30 -30,-16 -255.7,-231.8 -503.5,-479.5 l -449.5,-451.5 -6,-959 -6,-959 H 6913 6063.9 v 919.1 c 0,741.2 -6,933.1 -28,985 -26,61.9 -829.2,871.1 -931,939 -59.9,42 -143.9,44 -215.8,6 -30,-16 -255.7,-231.8 -503.5,-479.5 l -449.5,-451.5 -6,-959 -6,-959 H 3077 2227.9 v 917.1 c 0,591.4 -8,939 -20,975 -24,59.9 -775.2,829.2 -907.1,927.1 -91.9,67.5 -175.8,73.5 -261.8,19.5 z m 431.6,-785.2 317.7,-303.7 V -243.2 -3465.9 l -633.4,4 -635.4,6 -6,3204.7 -4,3206.7 313.7,315.7 c 171.8,173.8 317.7,315.7 321.7,315.7 4,0 149.9,-135.8 325.7,-303.7 z m 3836.1,2 317.7,-303.7 V -241.2 -3465.9 l -633.4,4 -635.3,6 -4,3204.7 -6,3206.7 313.7,315.7 c 173.8,173.8 317.7,315.7 321.7,315.7 3.9,0 151.8,-135.8 325.6,-301.7 z m 3836.1,0 317.7,-301.7 V -241.2 -3465.9 l -633.4,4 -635.4,6 -4,3204.7 -6,3206.7 313.7,315.7 c 173.8,173.8 317.7,315.7 321.7,315.7 6,0 151.9,-135.8 325.7,-301.7 z M 3926.1,-259.2 V -1328.1 H 3077 2227.9 v 1068.9 1069 h 849.1 849.1 z m 3836.1,0 V -1328.1 H 6913 6063.9 v 1068.9 1069 h 849.1 849.1 v -1069 z"
       id="path4"
       style="fill:#ffffff" /></g></g></svg>
